HIERARCHY
ROOT hip
{
	OFFSET 0.000000 0.000000 0.000000
	CHANNELS 6 Xposition Yposition Zposition Zrotation Yrotation Xrotation 
	JOINT lhipjoint
	{
		OFFSET 0.000000 0.000000 0.000000
		CHANNELS 3 Zrotation Yrotation Xrotation
		JOINT lfemur
		{
			OFFSET 1.363060 -1.794630 0.839290
			CHANNELS 3 Zrotation Yrotation Xrotation
			JOINT ltibia
			{
				OFFSET 2.448110 -6.726130 0.000000
				CHANNELS 3 Zrotation Yrotation Xrotation
				JOINT lfoot
				{
					OFFSET 2.562200 -7.039590 0.000000
					CHANNELS 3 Zrotation Yrotation Xrotation
					JOINT ltoes
					{
						OFFSET 0.157640 -0.433110 2.322550
						CHANNELS 3 Zrotation Yrotation Xrotation
						End Site
						{
							OFFSET 0.000000 0.000000 0.000000
						}
					}
				}
			}
		}
	}
	JOINT rhipjoint
	{
		OFFSET 0.000000 0.000000 0.000000
		CHANNELS 3 Zrotation Yrotation Xrotation
		JOINT rfemur
		{
			OFFSET -1.305520 -1.794630 0.839290
			CHANNELS 3 Zrotation Yrotation Xrotation
			JOINT rtibia
			{
				OFFSET -2.542530 -6.985550 0.000000
				CHANNELS 3 Zrotation Yrotation Xrotation
				JOINT rfoot
				{
					OFFSET -2.568260 -7.056230 0.000000
					CHANNELS 3 Zrotation Yrotation Xrotation
					JOINT rtoes
					{
						OFFSET -0.164730 -0.452590 2.363150
						CHANNELS 3 Zrotation Yrotation Xrotation
						End Site
						{
							OFFSET 0.000000 0.000000 0.000000
						}
					}
				}
			}
		}
	}
	JOINT lowerback
	{
		OFFSET 0.000000 0.000000 0.000000
		CHANNELS 3 Zrotation Yrotation Xrotation
		JOINT upperback
		{
			OFFSET 0.028270 2.035590 -0.193380
			CHANNELS 3 Zrotation Yrotation Xrotation
			JOINT thorax
			{
				OFFSET 0.056720 2.048850 -0.042750
				CHANNELS 3 Zrotation Yrotation Xrotation
				JOINT lowerneck
				{
					OFFSET 0.000000 0.000000 0.000000
					CHANNELS 3 Zrotation Yrotation Xrotation
					JOINT upperneck
					{
						OFFSET -0.054170 1.746240 0.172020
						CHANNELS 3 Zrotation Yrotation Xrotation
						JOINT head
						{
							OFFSET 0.104070 1.761360 -0.123970
							CHANNELS 3 Zrotation Yrotation Xrotation
							End Site
							{
								OFFSET 0.000000 0.000000 0.000000
							}
						}
					}
				}
				JOINT lclavicle
				{
					OFFSET 0.000000 0.000000 0.000000
					CHANNELS 3 Zrotation Yrotation Xrotation
					JOINT lhumerus
					{
						OFFSET 3.362410 1.200890 -0.311210
						CHANNELS 3 Zrotation Yrotation Xrotation
						JOINT lradius
						{
							OFFSET 4.983000 -0.000000 -0.000000
							CHANNELS 3 Zrotation Yrotation Xrotation
							JOINT lwrist
							{
								OFFSET 3.483560 -0.000000 -0.000000
								CHANNELS 3 Zrotation Yrotation Xrotation
								JOINT lhand
								{
									OFFSET 0.000000 0.000000 0.000000
									CHANNELS 3 Zrotation Yrotation Xrotation
									JOINT lfingers
									{
										OFFSET 0.715260 -0.000000 -0.000000
										CHANNELS 3 Zrotation Yrotation Xrotation
										End Site
										{
											OFFSET 0.000000 0.000000 0.000000
										}
									}
								}
								JOINT lthumb
								{
									OFFSET 0.000000 0.000000 0.000000
									CHANNELS 3 Zrotation Yrotation Xrotation
									End Site
									{
										OFFSET 0.000000 0.000000 0.000000
									}
								}
							}
						}
					}
				}
				JOINT rclavicle
				{
					OFFSET 0.000000 0.000000 0.000000
					CHANNELS 3 Zrotation Yrotation Xrotation
					JOINT rhumerus
					{
						OFFSET -3.136600 1.374050 -0.404650
						CHANNELS 3 Zrotation Yrotation Xrotation
						JOINT rradius
						{
							OFFSET -5.241900 -0.000000 -0.000000
							CHANNELS 3 Zrotation Yrotation Xrotation
							JOINT rwrist
							{
								OFFSET -3.444170 -0.000000 -0.000000
								CHANNELS 3 Zrotation Yrotation Xrotation
								JOINT rhand
								{
									OFFSET 0.000000 0.000000 0.000000
									CHANNELS 3 Zrotation Yrotation Xrotation
									JOINT rfingers
									{
										OFFSET -0.622530 -0.000000 -0.000000
										CHANNELS 3 Zrotation Yrotation Xrotation
										End Site
										{
											OFFSET 0.000000 0.000000 0.000000
										}
									}
								}
								JOINT rthumb
								{
									OFFSET 0.000000 0.000000 0.000000
									CHANNELS 3 Zrotation Yrotation Xrotation
									End Site
									{
										OFFSET 0.000000 0.000000 0.000000
									}
								}
							}
						}
					}
				}
			}
		}
	}
}
MOTION
Frames: 4
Frame Time: 0.008333
0.367586 2.005086 -1.576074 -177.978471 15.309253 120.361320 4.076397 3.132624 -1.587266 -1.778552 -13.318067 -55.372134 8.467269 18.752466 56.500368 3.501911 -0.018719 33.078197 2.128100 -9.128000 -26.196500 -4.607372 -3.944306 2.912072 20.948825 21.556828 -75.273729 -21.720185 -20.048242 93.178772 0.152959 -12.390185 17.282568 -0.111100 -2.148600 5.916600 -11.826771 -4.116530 58.500367 0.557204 -2.146958 0.512798 2.722710 3.235124 6.868410 -0.903516 2.307748 -16.099589 11.172779 2.814229 3.609092 0.726500 1.683700 -2.063800 -0.110830 -8.025198 4.688198 -72.943638 -5.407229 49.374555 113.183151 -51.746514 -71.157812 2.740620 1.600528 121.307608 22.195691 25.304381 10.379600 -7.125000 0.000000 0.000000 -4.347700 55.111700 -1.081000 6.325787 7.742372 5.517265 65.223093 6.601370 38.777781 -138.644073 39.465476 -100.934878 0.031574 -0.779523 -174.888304 -21.021665 -12.424467 5.012800 7.125000 0.000000 0.000000 5.913100 -44.061300 0.137500 
0.361686 2.003732 -1.577525 -177.947559 15.478550 120.381580 4.077296 3.144326 -1.579814 -1.614386 -13.295667 -55.439529 8.475548 18.770085 56.557136 3.519471 -0.160014 33.077252 2.118100 -9.107900 -26.133300 -4.637493 -3.929002 2.891375 21.115545 21.715134 -75.102472 -21.673231 -20.039357 93.031987 0.163848 -12.552132 17.371886 -0.100800 -2.047800 5.637800 -11.875919 -4.199818 58.500990 0.581259 -2.241074 0.523544 2.834142 3.151239 6.919274 -0.732821 2.369027 -16.074360 11.160291 2.871638 3.659115 0.638400 1.692700 -2.052400 -0.076832 -7.999130 4.704780 -72.902495 -5.668215 49.401704 113.042098 -51.773761 -70.993985 2.743465 1.654329 121.324296 21.863467 25.598685 10.379700 -7.125000 0.000000 0.000000 -4.757300 55.391400 -1.215500 6.340521 7.732494 5.511032 65.647427 6.668281 38.920559 -138.563326 39.510954 -100.844824 0.054594 -0.803017 -174.840447 -20.472356 -11.826491 4.656300 7.125000 0.000000 0.000000 6.325500 -43.389500 0.252500 
0.356655 2.002281 -1.579170 -177.928302 15.606444 120.383405 4.077033 3.158214 -1.571247 -1.493312 -13.291828 -55.472877 8.484634 18.783380 56.598241 3.522477 -0.216203 33.051852 2.092800 -9.056900 -25.973400 -4.664159 -3.913137 2.872775 21.228019 21.869707 -74.958691 -21.633625 -20.029482 92.908184 0.171005 -12.696127 17.470986 -0.082100 -1.848100 5.086100 -11.978968 -4.263123 58.521938 0.607583 -2.327686 0.532717 2.995870 3.061144 6.973243 -0.610582 2.431510 -16.067829 11.163578 2.932717 3.711478 0.567200 1.707200 -2.033100 -0.041206 -7.976897 4.717904 -72.899096 -5.946725 49.375707 112.868655 -51.811013 -70.797024 2.749542 1.710013 121.353309 21.553515 25.895649 10.388800 -7.125000 0.000000 0.000000 -5.144100 55.674700 -1.350100 6.362925 7.717683 5.505690 65.944468 6.732743 39.101111 -138.455741 39.577259 -100.730594 0.076170 -0.823604 -174.922015 -19.931493 -11.259080 4.325100 7.125000 0.000000 0.000000 6.729000 -42.752800 0.375000 
0.351625 2.001507 -1.579847 -177.926108 15.730521 120.414202 4.075390 3.170482 -1.562737 -1.371406 -13.266394 -55.544538 8.492026 18.797329 56.631206 3.530791 -0.247141 33.074459 2.059200 -8.988400 -25.758900 -4.688142 -3.898847 2.855700 21.316755 22.046011 -74.855277 -21.592781 -20.017941 92.782425 0.181990 -12.839801 17.545360 -0.066700 -1.666000 4.583600 -12.062070 -4.311042 58.500658 0.634762 -2.386849 0.540542 3.173663 2.978396 7.017484 -0.539429 2.475740 -16.039584 11.187432 2.966180 3.760046 0.522000 1.711400 -2.022500 -0.008422 -7.962828 4.730363 -72.909756 -6.246431 49.385269 112.696684 -51.848119 -70.587174 2.755589 1.760156 121.357673 21.261001 26.107575 10.366000 -7.125000 0.000000 0.000000 -5.491000 55.867500 -1.467200 6.386722 7.699239 5.501239 66.164673 6.744894 39.249138 -138.344983 39.650353 -100.614640 0.093732 -0.841758 -175.042065 -19.426641 -10.816928 4.057200 7.125000 0.000000 0.000000 7.116100 -42.253500 0.484900 
